<svg xmlns="http://www.w3.org/2000/svg" xmlns:xlink="http://www.w3.org/1999/xlink" width="500" zoomAndPan="magnify" viewBox="0 0 375 374.999991" height="500" preserveAspectRatio="xMidYMid meet" version="1.0"><defs><g/></defs><g fill="#000000" fill-opacity="1"><g transform="translate(60.366758, 197.19879)"><g><path d="M 2.875 0 L 2.875 -25.390625 L 10.59375 -25.390625 L 10.59375 0 Z M 6.71875 -28.25 C 5.5 -28.25 4.441406 -28.695312 3.546875 -29.59375 C 2.660156 -30.488281 2.21875 -31.546875 2.21875 -32.765625 C 2.21875 -33.984375 2.660156 -35.046875 3.546875 -35.953125 C 4.441406 -36.859375 5.5 -37.3125 6.71875 -37.3125 C 7.945312 -37.3125 9.003906 -36.859375 9.890625 -35.953125 C 10.785156 -35.046875 11.234375 -33.984375 11.234375 -32.765625 C 11.234375 -31.546875 10.785156 -30.488281 9.890625 -29.59375 C 9.003906 -28.695312 7.945312 -28.25 6.71875 -28.25 Z M 6.71875 -28.25 "/></g></g></g><g fill="#000000" fill-opacity="1"><g transform="translate(70.315301, 197.19879)"><g><path d="M 2.875 0 L 2.875 -15 C 2.875 -17.070312 3.359375 -18.941406 4.328125 -20.609375 C 5.304688 -22.273438 6.703125 -23.585938 8.515625 -24.546875 C 10.328125 -25.503906 12.488281 -25.984375 15 -25.984375 C 16.25 -25.984375 17.398438 -25.84375 18.453125 -25.5625 C 19.515625 -25.28125 20.484375 -24.898438 21.359375 -24.421875 C 22.234375 -23.941406 22.984375 -23.375 23.609375 -22.71875 L 23.703125 -22.71875 C 24.367188 -23.375 25.140625 -23.941406 26.015625 -24.421875 C 26.890625 -24.898438 27.863281 -25.28125 28.9375 -25.5625 C 30.007812 -25.84375 31.171875 -25.984375 32.421875 -25.984375 C 34.929688 -25.984375 37.09375 -25.503906 38.90625 -24.546875 C 40.71875 -23.585938 42.117188 -22.273438 43.109375 -20.609375 C 44.097656 -18.941406 44.59375 -17.070312 44.59375 -15 L 44.59375 0 L 36.875 0 L 36.875 -14.75 C 36.875 -15.570312 36.664062 -16.320312 36.25 -17 C 35.84375 -17.675781 35.289062 -18.226562 34.59375 -18.65625 C 33.90625 -19.09375 33.113281 -19.3125 32.21875 -19.3125 C 31.332031 -19.3125 30.535156 -19.09375 29.828125 -18.65625 C 29.117188 -18.226562 28.566406 -17.675781 28.171875 -17 C 27.773438 -16.320312 27.578125 -15.570312 27.578125 -14.75 L 27.578125 0 L 19.90625 0 L 19.90625 -14.75 C 19.90625 -15.570312 19.695312 -16.320312 19.28125 -17 C 18.863281 -17.675781 18.300781 -18.226562 17.59375 -18.65625 C 16.882812 -19.09375 16.085938 -19.3125 15.203125 -19.3125 C 14.304688 -19.3125 13.503906 -19.09375 12.796875 -18.65625 C 12.085938 -18.226562 11.535156 -17.675781 11.140625 -17 C 10.742188 -16.320312 10.546875 -15.570312 10.546875 -14.75 L 10.546875 0 Z M 2.875 0 "/></g></g></g><g fill="#000000" fill-opacity="1"><g transform="translate(114.319833, 197.19879)"><g><path d="M 16.28125 -25.984375 C 18.425781 -25.984375 20.332031 -25.644531 22 -24.96875 C 23.664062 -24.289062 25.082031 -23.332031 26.25 -22.09375 C 27.425781 -20.863281 28.328125 -19.414062 28.953125 -17.75 C 29.578125 -16.082031 29.890625 -14.238281 29.890625 -12.21875 C 29.890625 -9.71875 29.367188 -7.5 28.328125 -5.5625 C 27.296875 -3.632812 25.867188 -2.125 24.046875 -1.03125 C 22.234375 0.0507812 20.125 0.59375 17.71875 0.59375 C 16.695312 0.59375 15.734375 0.457031 14.828125 0.1875 C 13.921875 -0.0703125 13.09375 -0.445312 12.34375 -0.9375 C 11.601562 -1.4375 10.988281 -2.046875 10.5 -2.765625 L 10.34375 -2.765625 L 10.34375 10.734375 L 2.671875 10.734375 L 2.671875 -12.21875 C 2.671875 -15.03125 3.226562 -17.457031 4.34375 -19.5 C 5.46875 -21.550781 7.050781 -23.144531 9.09375 -24.28125 C 11.144531 -25.414062 13.539062 -25.984375 16.28125 -25.984375 Z M 16.28125 -19.359375 C 15.09375 -19.359375 14.0625 -19.066406 13.1875 -18.484375 C 12.3125 -17.910156 11.644531 -17.117188 11.1875 -16.109375 C 10.726562 -15.109375 10.5 -13.976562 10.5 -12.71875 C 10.5 -11.46875 10.726562 -10.347656 11.1875 -9.359375 C 11.644531 -8.367188 12.3125 -7.582031 13.1875 -7 C 14.0625 -6.425781 15.09375 -6.140625 16.28125 -6.140625 C 17.46875 -6.140625 18.488281 -6.425781 19.34375 -7 C 20.207031 -7.582031 20.878906 -8.367188 21.359375 -9.359375 C 21.835938 -10.347656 22.078125 -11.46875 22.078125 -12.71875 C 22.078125 -13.976562 21.835938 -15.109375 21.359375 -16.109375 C 20.878906 -17.117188 20.207031 -17.910156 19.34375 -18.484375 C 18.488281 -19.066406 17.46875 -19.359375 16.28125 -19.359375 Z M 16.28125 -19.359375 "/></g></g></g><g fill="#000000" fill-opacity="1"><g transform="translate(142.484371, 197.19879)"><g><path d="M 15.546875 0.59375 C 12.929688 0.59375 10.675781 0.09375 8.78125 -0.90625 C 6.882812 -1.914062 5.425781 -3.285156 4.40625 -5.015625 C 3.382812 -6.753906 2.875 -8.679688 2.875 -10.796875 L 2.875 -25.390625 L 10.546875 -25.390625 L 10.546875 -10.984375 C 10.546875 -10.097656 10.757812 -9.28125 11.1875 -8.53125 C 11.613281 -7.789062 12.195312 -7.195312 12.9375 -6.75 C 13.6875 -6.3125 14.539062 -6.09375 15.5 -6.09375 C 16.414062 -6.09375 17.242188 -6.3125 17.984375 -6.75 C 18.734375 -7.195312 19.320312 -7.789062 19.75 -8.53125 C 20.175781 -9.28125 20.390625 -10.097656 20.390625 -10.984375 L 20.390625 -25.390625 L 28.0625 -25.390625 L 28.0625 -10.796875 C 28.0625 -8.679688 27.566406 -6.753906 26.578125 -5.015625 C 25.585938 -3.285156 24.160156 -1.914062 22.296875 -0.90625 C 20.429688 0.09375 18.179688 0.59375 15.546875 0.59375 Z M 15.546875 0.59375 "/></g></g></g><g fill="#000000" fill-opacity="1"><g transform="translate(170.005407, 197.19879)"><g><path d="M 2.875 0 L 2.875 -36.140625 L 10.546875 -36.140625 L 10.546875 0 Z M 2.875 0 "/></g></g></g><g fill="#000000" fill-opacity="1"><g transform="translate(179.953949, 197.19879)"><g><path d="M 2.921875 0 L 2.921875 -6.09375 L 15.140625 -6.09375 C 15.472656 -6.09375 15.769531 -6.164062 16.03125 -6.3125 C 16.300781 -6.457031 16.515625 -6.660156 16.671875 -6.921875 C 16.835938 -7.191406 16.921875 -7.472656 16.921875 -7.765625 C 16.921875 -8.097656 16.835938 -8.394531 16.671875 -8.65625 C 16.515625 -8.925781 16.300781 -9.132812 16.03125 -9.28125 C 15.769531 -9.425781 15.472656 -9.5 15.140625 -9.5 L 10.6875 -9.5 C 9.039062 -9.5 7.546875 -9.769531 6.203125 -10.3125 C 4.867188 -10.863281 3.8125 -11.722656 3.03125 -12.890625 C 2.257812 -14.066406 1.875 -15.59375 1.875 -17.46875 C 1.875 -18.925781 2.226562 -20.25 2.9375 -21.4375 C 3.65625 -22.625 4.628906 -23.578125 5.859375 -24.296875 C 7.097656 -25.023438 8.460938 -25.390625 9.953125 -25.390625 L 22.171875 -25.390625 L 22.171875 -19.25 L 11.140625 -19.25 C 10.671875 -19.25 10.28125 -19.097656 9.96875 -18.796875 C 9.65625 -18.503906 9.5 -18.144531 9.5 -17.71875 C 9.5 -17.257812 9.65625 -16.875 9.96875 -16.5625 C 10.28125 -16.25 10.671875 -16.09375 11.140625 -16.09375 L 15.5 -16.09375 C 17.34375 -16.09375 18.929688 -15.816406 20.265625 -15.265625 C 21.609375 -14.722656 22.648438 -13.859375 23.390625 -12.671875 C 24.128906 -11.484375 24.5 -9.945312 24.5 -8.0625 C 24.5 -6.582031 24.128906 -5.226562 23.390625 -4 C 22.648438 -2.78125 21.660156 -1.804688 20.421875 -1.078125 C 19.179688 -0.359375 17.785156 0 16.234375 0 Z M 2.921875 0 "/></g></g></g><g fill="#000000" fill-opacity="1"><g transform="translate(202.772494, 197.19879)"><g><path d="M 15.4375 0.59375 C 12.832031 0.59375 10.488281 0.015625 8.40625 -1.140625 C 6.332031 -2.296875 4.691406 -3.878906 3.484375 -5.890625 C 2.285156 -7.898438 1.6875 -10.160156 1.6875 -12.671875 C 1.6875 -15.210938 2.285156 -17.476562 3.484375 -19.46875 C 4.691406 -21.46875 6.332031 -23.050781 8.40625 -24.21875 C 10.488281 -25.394531 12.832031 -25.984375 15.4375 -25.984375 C 18.050781 -25.984375 20.390625 -25.394531 22.453125 -24.21875 C 24.515625 -23.050781 26.144531 -21.46875 27.34375 -19.46875 C 28.550781 -17.476562 29.15625 -15.210938 29.15625 -12.671875 C 29.15625 -10.160156 28.550781 -7.898438 27.34375 -5.890625 C 26.144531 -3.878906 24.503906 -2.296875 22.421875 -1.140625 C 20.347656 0.015625 18.019531 0.59375 15.4375 0.59375 Z M 15.4375 -6.09375 C 16.664062 -6.09375 17.722656 -6.390625 18.609375 -6.984375 C 19.503906 -7.578125 20.195312 -8.367188 20.6875 -9.359375 C 21.1875 -10.347656 21.4375 -11.46875 21.4375 -12.71875 C 21.4375 -13.9375 21.1875 -15.039062 20.6875 -16.03125 C 20.195312 -17.019531 19.503906 -17.8125 18.609375 -18.40625 C 17.722656 -19.007812 16.664062 -19.3125 15.4375 -19.3125 C 14.21875 -19.3125 13.15625 -19.007812 12.25 -18.40625 C 11.34375 -17.8125 10.640625 -17.019531 10.140625 -16.03125 C 9.648438 -15.039062 9.40625 -13.9375 9.40625 -12.71875 C 9.40625 -11.46875 9.648438 -10.347656 10.140625 -9.359375 C 10.640625 -8.367188 11.34375 -7.578125 12.25 -6.984375 C 13.15625 -6.390625 14.21875 -6.09375 15.4375 -6.09375 Z M 15.4375 -6.09375 "/></g></g></g><g fill="#f294e9" fill-opacity="1"><g transform="translate(230.194872, 197.19879)"><g><path d="M 19.84375 0 C 17.007812 0 14.453125 -0.4375 12.171875 -1.3125 C 9.898438 -2.1875 7.972656 -3.414062 6.390625 -5 C 4.804688 -6.582031 3.582031 -8.421875 2.71875 -10.515625 C 1.863281 -12.609375 1.4375 -14.878906 1.4375 -17.328125 C 1.4375 -19.765625 1.863281 -22.03125 2.71875 -24.125 C 3.582031 -26.226562 4.8125 -28.070312 6.40625 -29.65625 C 8.007812 -31.238281 9.941406 -32.46875 12.203125 -33.34375 C 14.460938 -34.21875 17.007812 -34.65625 19.84375 -34.65625 L 25.203125 -34.65625 L 25.203125 -27.71875 L 20.046875 -27.71875 C 18.492188 -27.71875 17.082031 -27.453125 15.8125 -26.921875 C 14.539062 -26.398438 13.453125 -25.664062 12.546875 -24.71875 C 11.640625 -23.78125 10.945312 -22.679688 10.46875 -21.421875 C 9.988281 -20.171875 9.75 -18.804688 9.75 -17.328125 C 9.75 -15.835938 9.988281 -14.460938 10.46875 -13.203125 C 10.945312 -11.953125 11.640625 -10.859375 12.546875 -9.921875 C 13.453125 -8.984375 14.539062 -8.25 15.8125 -7.71875 C 17.082031 -7.195312 18.492188 -6.9375 20.046875 -6.9375 L 25.203125 -6.9375 L 25.203125 0 Z M 19.84375 0 "/></g></g></g><g fill="#004aad" fill-opacity="1"><g transform="translate(253.66753, 197.19879)"><g><path d="M 2.578125 0 L 2.578125 -24.40625 C 2.578125 -26.320312 3.046875 -28.050781 3.984375 -29.59375 C 4.921875 -31.144531 6.191406 -32.375 7.796875 -33.28125 C 9.398438 -34.195312 11.191406 -34.65625 13.171875 -34.65625 L 26.09375 -34.65625 L 26.09375 -27.71875 L 14.203125 -27.71875 C 13.285156 -27.71875 12.503906 -27.382812 11.859375 -26.71875 C 11.210938 -26.0625 10.890625 -25.253906 10.890625 -24.296875 L 10.890625 -19.3125 L 24.40625 -19.3125 L 24.40625 -12.421875 L 10.890625 -12.421875 L 10.890625 0 Z M 2.578125 0 "/></g></g></g><g fill="#ff3131" fill-opacity="1"><g transform="translate(277.831591, 197.19879)"><g><path d="M 0 0 L 11.234375 -30.640625 C 11.796875 -32.160156 12.71875 -33.304688 14 -34.078125 C 15.289062 -34.859375 16.742188 -35.25 18.359375 -35.25 C 19.984375 -35.25 21.4375 -34.875 22.71875 -34.125 C 24.007812 -33.382812 24.9375 -32.238281 25.5 -30.6875 L 36.78125 0 L 27.8125 0 L 25.640625 -6.6875 L 10.9375 -6.6875 L 8.65625 0 Z M 13.0625 -13.5625 L 23.515625 -13.5625 L 19.109375 -27.375 C 19.046875 -27.570312 18.953125 -27.710938 18.828125 -27.796875 C 18.710938 -27.878906 18.570312 -27.921875 18.40625 -27.921875 C 18.25 -27.921875 18.109375 -27.867188 17.984375 -27.765625 C 17.867188 -27.671875 17.796875 -27.539062 17.765625 -27.375 Z M 13.0625 -13.5625 "/></g></g></g></svg>